PathFileType	4	(X/Y/Z)	/Users/itak/Documents/Research/Walk-IL/dataset/trc/00066_00006.trc
DataRate	CameraRate	NumFrames	NumMarkers	Units	OrigDataRate	OrigDataStartFrame	OrigNumFrames
100.000000	100.000000	4	53	mm	100.000000	277	739
Frame#	Time	RPSI			LPSI			L3			STRN			T10			C7			CLAV			RBAK			LBAK			LSHO			LUPA			LAEL			LAOL			LWTS			LWPS			LFRA			LIFD			LHPS			LHTS			RSHO			RUPA			RAEL			RAOL			RWTS			RWPS			RFRA			RIFD			RHTS			RHPS			RBHD			LFHD			RFHD			LBHD			LHIP			RHIP			RASI			LASI			LKNE			LTHI			LANK			LTIP			LTOE			LMT1			LMT5			LHEE			RKNE			RTHI			RANK			RTIP			RTOE			RMT1			RMT5			RHEE			
		X1	Y1	Z1	X2	Y2	Z2	X3	Y3	Z3	X4	Y4	Z4	X5	Y5	Z5	X6	Y6	Z6	X7	Y7	Z7	X8	Y8	Z8	X9	Y9	Z9	X10	Y10	Z10	X11	Y11	Z11	X12	Y12	Z12	X13	Y13	Z13	X14	Y14	Z14	X15	Y15	Z15	X16	Y16	Z16	X17	Y17	Z17	X18	Y18	Z18	X19	Y19	Z19	X20	Y20	Z20	X21	Y21	Z21	X22	Y22	Z22	X23	Y23	Z23	X24	Y24	Z24	X25	Y25	Z25	X26	Y26	Z26	X27	Y27	Z27	X28	Y28	Z28	X29	Y29	Z29	X30	Y30	Z30	X31	Y31	Z31	X32	Y32	Z32	X33	Y33	Z33	X34	Y34	Z34	X35	Y35	Z35	X36	Y36	Z36	X37	Y37	Z37	X38	Y38	Z38	X39	Y39	Z39	X40	Y40	Z40	X41	Y41	Z41	X42	Y42	Z42	X43	Y43	Z43	X44	Y44	Z44	X45	Y45	Z45	X46	Y46	Z46	X47	Y47	Z47	X48	Y48	Z48	X49	Y49	Z49	X50	Y50	Z50	X51	Y51	Z51	X52	Y52	Z52	X53	Y53	Z53	

278	2.77	921.5436401367188	1005.441650390625	218.7698669433594	751.064697265625	987.0520629882812	251.7216339111328	831.4234008789062	1055.415649414062	231.6168823242188	795.7884521484375	1251.096435546875	-21.40600204467773	829.5182495117188	1189.304565429688	245.8859558105469	818.6597290039062	1454.908935546875	184.5818176269531	796.40234375	1365.948486328125	8.538268089294434	901.3900756835938	1317.754760742188	238.3802185058594	722.2282104492188	1418.458740234375	220.5398712158203	636.0946044921875	1421.203125	127.9166641235352	560.6206665039062	1297.749145507812	161.6283264160156	536.5640869140625	1082.510498046875	162.7957763671875	632.8020629882812	1070.966918945312	208.5008850097656	582.8922729492188	839.6752319335938	70.63357543945312	536.2872314453125	831.2977294921875	139.8314361572266	525.1625366210938	972.6007080078125	149.1492004394531	606.1907958984375	654.3041381835938	64.62870788574219	536.0067138671875	747.7167358398438	111.0172805786133	578.40673828125	755.3612670898438	53.96751403808594	982.9297485351562	1420.288452148438	99.19607543945312	1047.354248046875	1353.852783203125	102.957275390625	1110.827514648438	1100.396362304688	129.3902130126953	1018.102416992188	1069.455932617188	126.4727172851562	1075.505737304688	847.930419921875	-15.07130813598633	1132.91259765625	836.6268310546875	49.36146545410156	1125.595581054688	1019.483215332031	114.1756057739258	1060.543579101562	657.6946411132812	-2.662862777709961	1077.5068359375	741.1217651367188	-32.10521697998047	1134.672119140625	745.4124755859375	19.3631649017334	802.8466186523438	1629.316528320312	173.6824188232422	816.8929443359375	1668.591186523438	-37.68051528930664	708.1466674804688	1669.4404296875	26.9068660736084	915.005126953125	1621.86376953125	95.19253540039062	654.68701171875	921.6787109375	155.2482757568359	996.1454467773438	935.9281005859375	149.6079864501953	965.6151123046875	949.9385375976562	26.62960243225098	698.5396728515625	934.74365234375	39.58600997924805	761.6131591796875	497.7204895019531	-54.00929260253906	701.330078125	613.355712890625	22.21274375915527	820.2108764648438	39.82746887207031	-7.377480030059814	781.2857666015625	245.3160858154297	-32.8044319152832	814.5925903320312	36.07465744018555	-212.9217681884766	868.7484741210938	31.19546508789062	-168.3709411621094	774.9432983398438	39.70547866821289	-106.9631805419922	899.8678588867188	35.89661026000977	38.25570678710938	1007.363708496094	487.8320007324219	69.31161499023438	1005.03271484375	761.1353149414062	65.5728759765625	1029.510009765625	187.759765625	468.5260925292969	1022.822570800781	395.2098388671875	156.1114196777344	984.5769653320312	38.46480178833008	331.6007080078125	946.74560546875	86.13811492919922	362.9798278808594	1040.083740234375	87.95973968505859	396.8055419921875	974.9396362304688	230.8524932861328	486.6387939453125	
279	2.78	920.9603881835938	1005.141967773438	208.8755340576172	750.9686279296875	987.4495239257812	244.0420532226562	830.705078125	1056.2734375	223.0157012939453	792.54248046875	1251.776245117188	-29.72780609130859	828.5530395507812	1190.077026367188	236.9754943847656	817.3258666992188	1455.758544921875	176.0504455566406	793.5338745117188	1366.628295898438	0.1904494762420654	900.4292602539062	1318.571411132812	229.1068572998047	721.0657958984375	1419.168334960938	212.8507843017578	634.1715087890625	1421.68310546875	120.9067306518555	558.9678955078125	1298.127075195312	154.8356170654297	534.5830688476562	1082.74072265625	155.3698883056641	630.8350830078125	1071.0458984375	200.9081115722656	581.6743774414062	840.9550170898438	61.11519241333008	535.1624755859375	831.68798828125	130.3152008056641	523.5470581054688	972.8392944335938	140.9109954833984	605.6473388671875	655.8358154296875	52.96441268920898	535.1858520507812	748.39404296875	100.5833740234375	577.46630859375	756.8790893554688	43.52559280395508	980.8914184570312	1420.837768554688	89.10467529296875	1045.26611328125	1354.319580078125	92.36365509033203	1108.728271484375	1100.821044921875	118.7490005493164	1016.126220703125	1070.1884765625	117.3166046142578	1071.676635742188	847.9569091796875	-24.50072860717773	1129.711181640625	836.7671508789062	39.52127838134766	1123.226684570312	1019.874755859375	103.6418685913086	1056.528198242188	657.7937622070312	-11.36152076721191	1073.342041015625	741.0498657226562	-41.13444137573242	1130.984619140625	745.4132080078125	9.791090965270996	801.587646484375	1630.122924804688	165.1305084228516	812.0111694335938	1669.399658203125	-46.44979095458984	704.3617553710938	1669.839721679688	19.9318790435791	912.5059204101562	1623.132202148438	84.78968811035156	653.2652587890625	922.1774291992188	148.9673461914062	994.243408203125	935.6926879882812	137.9611511230469	962.130859375	951.0352783203125	15.50600528717041	695.2506713867188	935.300537109375	32.5543327331543	760.463134765625	497.0291137695312	-58.32588958740234	700.6591796875	613.0559692382812	17.7154655456543	820.2324829101562	40.04001617431641	-7.565362930297852	781.2162475585938	244.9654083251953	-34.7177734375	814.8193359375	36.05462265014648	-213.0046081542969	868.933837890625	30.8428955078125	-168.4389190673828	775.1760864257812	39.80694198608398	-107.2038040161133	899.9905395507812	35.90424728393555	38.15073394775391	1004.770751953125	488.8826599121094	46.99741363525391	1002.499389648438	762.3958129882812	50.13460540771484	1034.23046875	196.0124053955078	450.1747436523438	1021.491333007812	396.9563903808594	133.7595672607422	987.8157958984375	43.12458801269531	315.6499633789062	950.1862182617188	91.96668243408203	347.4286499023438	1044.34228515625	95.66405487060547	379.1942443847656	979.7434692382812	238.6961517333984	469.0693054199219	
280	2.79	920.4288330078125	1005.083801269531	198.9704284667969	750.9677734375	988.041015625	236.4586639404297	830.0731201171875	1057.195556640625	214.4927520751953	789.3203735351562	1252.56396484375	-37.86061477661133	827.672119140625	1190.914794921875	228.2624053955078	816.0922241210938	1456.67333984375	167.6946563720703	790.694091796875	1367.406005859375	-7.960061073303223	899.5487670898438	1319.441772460938	219.9948272705078	720.0372924804688	1419.967895507812	205.3914947509766	632.3407592773438	1422.25634765625	114.1673812866211	557.4393920898438	1298.567138671875	148.3111724853516	532.6529541015625	1083.095703125	148.0614471435547	628.9273071289062	1071.180419921875	193.453369140625	580.3788452148438	842.3855590820312	51.65594100952148	533.9390258789062	832.2048950195312	120.8164520263672	521.9230346679688	973.2028198242188	132.7545928955078	604.7870483398438	657.5499267578125	41.11943054199219	534.1865844726562	749.2621459960938	90.07371520996094	576.3484497070312	758.6181030273438	33.0424690246582	978.9051513671875	1421.387573242188	79.17328643798828	1043.230346679688	1354.773071289062	81.95780181884766	1106.5546875	1101.199829101562	108.3452606201172	1014.055053710938	1070.825317382812	108.1952438354492	1067.994262695312	847.9647827148438	-33.72661209106445	1126.564086914062	836.880859375	29.9418888092041	1120.806396484375	1020.235290527344	93.35292816162109	1052.87109375	657.8740234375	-20.13555908203125	1069.47607421875	741.023681640625	-50.10881042480469	1127.490112304688	745.4340209960938	0.3888751566410065	800.3670654296875	1631.052490234375	156.6186065673828	807.0556030273438	1670.196411132812	-55.13026809692383	700.5963134765625	1670.27099609375	13.09007549285889	909.9685668945312	1624.457885742188	74.37442779541016	651.8343505859375	922.7783203125	142.9217681884766	992.3101806640625	935.7948608398438	126.2724914550781	958.4632568359375	952.2801513671875	4.412809371948242	691.8875732421875	935.9861450195312	25.74194526672363	759.0899658203125	496.2958374023438	-62.06209945678711	700.1082763671875	612.7098999023438	13.90186595916748	820.22802734375	40.19675827026367	-7.692169189453125	781.0783081054688	244.6337280273438	-36.33571243286133	814.9697265625	36.13454437255859	-213.0242004394531	869.0338745117188	30.59282493591309	-168.4482269287109	775.3527221679688	39.89704513549805	-107.3585739135742	900.0944213867188	35.8907585144043	38.09775161743164	1001.47509765625	490.3923645019531	24.80185890197754	999.6408081054688	763.9712524414062	34.74673843383789	1038.469482421875	203.2476348876953	430.7575378417969	1019.601989746094	399.0992126464844	111.4837265014648	991.145263671875	48.16868209838867	297.6587219238281	953.61328125	97.40766906738281	330.1236267089844	1048.446899414062	102.9641189575195	359.8226318359375	983.9115600585938	245.2630767822266	450.6642761230469	
281	2.8	919.9229736328125	1005.318176269531	189.0222625732422	751.0496215820312	988.8475341796875	228.9489135742188	829.5177612304688	1058.175659179688	206.0013427734375	786.0950927734375	1253.494262695312	-45.81819534301758	826.8848876953125	1191.815307617188	219.7454223632812	814.95556640625	1457.648803710938	159.51123046875	787.8519897460938	1368.3115234375	-15.91648483276367	898.7596435546875	1320.361328125	211.0250091552734	719.160888671875	1420.867065429688	198.1668853759766	630.6116943359375	1422.976196289062	107.7175369262695	556.0472412109375	1299.13818359375	142.0832061767578	530.8226318359375	1083.645263671875	140.9082641601562	627.152099609375	1071.441528320312	186.1227111816406	578.9922485351562	844.0281982421875	42.2711296081543	532.6373291015625	832.9291381835938	111.3685913085938	520.3167724609375	973.7781982421875	124.7115707397461	603.5834350585938	659.4874267578125	29.18720817565918	532.99853515625	750.400146484375	79.55132293701172	575.0298461914062	760.6193237304688	22.56853294372559	976.951416015625	1421.989135742188	69.39859008789062	1041.232421875	1355.279296875	71.72515106201172	1104.287963867188	1101.61376953125	98.17987060546875	1011.850708007812	1071.436401367188	99.06978607177734	1064.455200195312	848.00732421875	-42.73404312133789	1123.465576171875	837.044921875	20.62252998352051	1118.315063476562	1020.641479492188	83.31668090820312	1049.560302734375	657.9881591796875	-28.89870643615723	1065.880859375	741.09375	-58.98163223266602	1124.195068359375	745.549560546875	-8.814334869384766	799.1716918945312	1632.130493164062	148.1509094238281	802.0377807617188	1670.967651367188	-63.72097778320312	696.8522338867188	1670.732543945312	6.363980770111084	907.3804321289062	1625.849609375	63.97800827026367	650.3914184570312	923.5084228515625	137.1058197021484	990.349609375	936.2734985351562	114.5484313964844	954.5943603515625	953.67236328125	-6.63715124130249	688.429931640625	936.832275390625	19.12681198120117	757.5211791992188	495.537353515625	-65.26897430419922	699.6349487304688	612.3595581054688	10.67831420898438	820.210205078125	40.3006706237793	-7.776343822479248	780.8699951171875	244.3341827392578	-37.73629379272461	815.0647583007812	36.25014114379883	-213.0098419189453	869.0712280273438	30.41388130187988	-168.4244995117188	775.4790649414062	39.9676513671875	-107.4513778686523	900.1658325195312	35.86672973632812	38.0881233215332	997.489501953125	492.3232421875	2.79159140586853	996.408447265625	765.8436279296875	19.42391777038574	1042.254516601562	209.3886413574219	410.3442687988281	1017.170532226562	401.5805969238281	89.32245635986328	994.4603881835938	53.27628707885742	277.8082885742188	956.9490966796875	102.265022277832	311.2154541015625	1052.3232421875	109.6894302368164	338.8306579589844	987.51953125	250.5170593261719	431.4687805175781	
